<?xml version="1.0" encoding="UTF-8"?>
<svg xmlns="http://www.w3.org/2000/svg" width="512" height="512" viewBox="0 0 512 512" role="img" aria-labelledby="title">
  <title id="title">Uzzi favicon</title>
  <defs>
    <linearGradient id="g" x1="0" x2="1" y1="0" y2="1">
      <stop offset="0%" stop-color="#FF6A00"/>
      <stop offset="100%" stop-color="#FF3A00"/>
    </linearGradient>
  </defs>
  <rect width="512" height="512" rx="64" fill="url(#g)" />
  <g transform="translate(128,96) scale(1.0)" fill="#fff">
    <!-- Simple U monogram -->
    <path d="M128 0c35.346 0 64 28.654 64 64v160c0 35.346-28.654 64-64 64s-64-28.654-64-64V64c0-35.346 28.654-64 64-64zM96 64v160c0 17.673 14.327 32 32 32s32-14.327 32-32V64c0-17.673-14.327-32-32-32S96 46.327 96 64z" />
  </g>
</svg>
<?xml version="1.0" encoding="UTF-8"?>
<svg version="1.1" xmlns="http://www.w3.org/2000/svg" width="512" height="512">
<path d="M0 0 C168.96 0 337.92 0 512 0 C512 168.96 512 337.92 512 512 C343.04 512 174.08 512 0 512 C0 343.04 0 174.08 0 0 Z " fill="#020101" transform="translate(0,0)"/>
<path d="M0 0 C1.85378618 -0.00079189 3.70757219 -0.00289225 5.56135559 -0.00619507 C10.57141719 -0.01130691 15.58127163 0.00216066 20.59130001 0.01933193 C25.84286412 0.03442037 31.09442614 0.0331951 36.3460083 0.03399658 C45.15893061 0.03768272 53.97177473 0.05261936 62.78466797 0.07519531 C74.09247694 0.1041037 85.40022312 0.11442331 96.70806503 0.11887741 C106.44091718 0.12285873 116.17375572 0.1353569 125.90659809 0.14922428 C129.03092989 0.15331861 132.1552612 0.15624652 135.27959442 0.15901947 C140.18800397 0.16391918 145.09637566 0.17413394 150.00476646 0.18845749 C151.80509029 0.19297228 153.60541919 0.19581721 155.40574837 0.19686508 C157.86418496 0.19861691 160.32252762 0.20651567 162.78094482 0.21600342 C163.49203581 0.21513694 164.20312679 0.21427045 164.93576598 0.21337771 C168.92804994 0.2364676 172.69243886 0.58988799 176.61035156 1.35644531 C176.61035156 2.01644531 176.61035156 2.67644531 176.61035156 3.35644531 C177.22523438 3.40542969 177.84011719 3.45441406 178.47363281 3.50488281 C179.281875 3.57964844 180.09011719 3.65441406 180.92285156 3.73144531 C182.12361328 3.83585938 182.12361328 3.83585938 183.34863281 3.94238281 C185.61035156 4.35644531 185.61035156 4.35644531 188.61035156 6.35644531 C188.61035156 7.01644531 188.61035156 7.67644531 188.61035156 8.35644531 C189.27035156 8.35644531 189.93035156 8.35644531 190.61035156 8.35644531 C195.12961801 13.25685472 200.61035156 19.44436021 200.61035156 26.35644531 C201.27035156 26.35644531 201.93035156 26.35644531 202.61035156 26.35644531 C204.3994451 30.95068005 204.89436494 35.02709426 204.85758972 39.90473938 C204.86000414 40.64419979 204.86241855 41.3836602 204.86490613 42.1455285 C204.87052175 44.61216542 204.86189646 47.07854091 204.85327148 49.54516602 C204.85434485 51.31780568 204.85628435 53.09044501 204.85902405 54.86308289 C204.86386499 59.66846137 204.85622734 64.47374678 204.846071 69.27911401 C204.83728397 74.3048239 204.83904804 79.33053094 204.83943176 84.35624695 C204.83849579 92.79032957 204.82981855 101.22437616 204.81616211 109.65844727 C204.80041185 119.4219857 204.79516491 129.18548476 204.79589766 138.94903499 C204.79650693 148.33350823 204.7914124 157.7179686 204.78310585 167.10243797 C204.77956729 171.10123991 204.7777418 175.10003729 204.77721214 179.09884071 C204.77621122 183.79952128 204.77013524 188.50016851 204.76004601 193.20083809 C204.75711371 194.93069505 204.7558971 196.66055584 204.75647354 198.39041519 C204.75696069 200.74133595 204.75134382 203.09216185 204.74406433 205.44306946 C204.74238849 206.76173665 204.74071264 208.08040384 204.73898602 209.43903065 C204.61035156 212.35644531 204.61035156 212.35644531 203.61035156 213.35644531 C203.07858758 215.93036172 202.64604357 218.51504049 202.20800781 221.10644531 C202.01078125 221.84894531 201.81355469 222.59144531 201.61035156 223.35644531 C200.95035156 223.68644531 200.29035156 224.01644531 199.61035156 224.35644531 C199.19785156 225.05769531 198.78535156 225.75894531 198.36035156 226.48144531 C194.43811788 232.92511493 189.63646995 238.27007347 182.61035156 241.35644531 C181.29035156 241.35644531 179.97035156 241.35644531 178.61035156 241.35644531 C178.61035156 242.01644531 178.61035156 242.67644531 178.61035156 243.35644531 C176.96035156 243.35644531 175.31035156 243.35644531 173.61035156 243.35644531 C173.61035156 244.01644531 173.61035156 244.67644531 173.61035156 245.35644531 C109.26035156 245.35644531 44.91035156 245.35644531 -21.38964844 245.35644531 C-21.38964844 244.69644531 -21.38964844 244.03644531 -21.38964844 243.35644531 C-22.10378906 243.23527344 -22.81792969 243.11410156 -23.55371094 242.98925781 C-31.8500425 241.13801027 -39.29401852 237.248185 -44.38964844 230.35644531 C-48.90318757 222.77369957 -51.70275077 215.58139615 -51.6368866 206.68994141 C-51.63930101 205.93767462 -51.64171543 205.18540783 -51.64420301 204.41034508 C-51.64982002 201.90010154 -51.64119206 199.39011475 -51.63256836 196.87988281 C-51.63364174 195.07594738 -51.63558126 193.27201229 -51.63832092 191.46807861 C-51.64316345 186.57559096 -51.63552082 181.68319469 -51.62536788 176.79071808 C-51.61657666 171.66858527 -51.61834504 166.54645523 -51.61872864 161.42431641 C-51.61779242 152.82290114 -51.60911428 144.22152117 -51.59545898 135.62011719 C-51.57973394 125.67831471 -51.57446092 115.73655088 -51.57519454 105.79473686 C-51.57587029 95.20696503 -51.56892728 84.61920808 -51.55974793 74.03144073 C-51.55761766 70.98212121 -51.5569069 67.93280409 -51.55650902 64.88348389 C-51.5555036 60.09004047 -51.54939064 55.29662944 -51.53934288 50.50319672 C-51.53642509 48.74480131 -51.53519105 46.98640218 -51.53577042 45.22800446 C-51.53626224 42.82628509 -51.53059428 40.42465599 -51.52336121 38.02294922 C-51.52490981 37.3285845 -51.52645841 36.63421978 -51.52805394 35.91881371 C-51.50841145 31.96411203 -51.14659133 28.23758421 -50.38964844 24.35644531 C-49.72964844 24.35644531 -49.06964844 24.35644531 -48.38964844 24.35644531 C-48.26589844 23.79957031 -48.14214844 23.24269531 -48.01464844 22.66894531 C-47.70527344 21.52425781 -47.70527344 21.52425781 -47.38964844 20.35644531 C-47.18339844 19.55207031 -46.97714844 18.74769531 -46.76464844 17.91894531 C-45.07109106 14.7627702 -43.11133666 13.4775319 -40.14355469 11.56738281 C-38.33333253 10.31756351 -36.93748746 8.91251752 -35.38964844 7.35644531 C-24.20037649 0.04916567 -12.96002967 -0.0714277 0 0 Z " fill="#FB4401" transform="translate(189.3896484375,135.6435546875)"/>
<path d="M0 0 C10.56 0 21.12 0 32 0 C37.625 10.125 37.625 10.125 37.60127258 14.29627991 C37.6081459 15.24262299 37.61501923 16.18896606 37.62210083 17.16398621 C37.59513626 18.67234795 37.59513626 18.67234795 37.56762695 20.21118164 C37.56835709 21.29514221 37.56908722 22.37910278 37.56983948 23.49591064 C37.56637757 27.05118199 37.52758024 30.60511596 37.48828125 34.16015625 C37.47894822 36.63593327 37.47183442 39.11171957 37.46684265 41.58750916 C37.44781181 48.08305651 37.39874362 54.57803905 37.34332275 61.07336426 C37.29204634 67.7096496 37.26931071 74.34599057 37.24414062 80.98242188 C37.19062203 93.9885213 37.10632586 106.99423052 37 120 C37.66 120 38.32 120 39 120 C39.17015625 120.66386719 39.3403125 121.32773437 39.515625 122.01171875 C40.9638157 127.28837102 42.38941477 130.80706231 46 135 C46.33 136.0725 46.66 137.145 47 138.25 C47.495 139.61125 47.495 139.61125 48 141 C50.03243548 141.96877057 50.03243548 141.96877057 52 142 C52 142.66 52 143.32 52 144 C52.56847656 144.11472656 53.13695312 144.22945312 53.72265625 144.34765625 C56.2368081 145.06783354 58.18162862 146.119946 60.4375 147.4375 C65.3685849 150.31039294 69.53174245 152.21164009 75.30078125 152.4140625 C76.76547852 152.47207031 76.76547852 152.47207031 78.25976562 152.53125 C79.26716797 152.5621875 80.27457031 152.593125 81.3125 152.625 C82.33923828 152.66367187 83.36597656 152.70234375 84.42382812 152.7421875 C86.94904265 152.83614897 89.47425592 152.9218154 92 153 C92 152.34 92 151.68 92 151 C93.65 151 95.3 151 97 151 C97 150.34 97 149.68 97 149 C98.19625 148.608125 99.3925 148.21625 100.625 147.8125 C107.85633882 145.06561335 111.58086976 140.70675548 115 134 C115.66 134 116.32 134 117 134 C117 133.01 117 132.02 117 131 C117.66 131 118.32 131 119 131 C119.12375 130.29875 119.2475 129.5975 119.375 128.875 C120 126 120 126 121.01318359 123.22607422 C122.04553832 119.85112733 122.31348016 117.02819441 122.4140625 113.5078125 C122.45273437 112.30898438 122.49140625 111.11015625 122.53125 109.875 C122.5621875 108.6375 122.593125 107.4 122.625 106.125 C122.66367187 104.86429687 122.70234375 103.60359375 122.7421875 102.3046875 C122.83616717 99.20335827 122.91916009 96.10169955 123 93 C114.75 93 106.5 93 98 93 C98.02320313 95.04703125 98.04640625 97.0940625 98.0703125 99.203125 C98.08422222 101.19221511 98.09805991 103.18130644 98.10986328 105.17041016 C98.11990253 106.54967315 98.13353677 107.92891496 98.15087891 109.30810547 C98.17521754 111.2938514 98.18543255 113.2797545 98.1953125 115.265625 C98.20578613 116.45961914 98.21625977 117.65361328 98.22705078 118.88378906 C98.01034762 121.85798164 97.56186122 123.50318379 96 126 C95.34 126 94.68 126 94 126 C94 126.66 94 127.32 94 128 C88.55552423 131.53155185 83.29307662 131.70533755 77 131 C72.2758024 129.41616497 69.29429198 127.42611955 66.90388489 122.94535828 C65.64109296 118.8304818 65.71319656 114.96818714 65.7253418 110.68676758 C65.72023087 109.75600403 65.71511993 108.82524048 65.70985413 107.86627197 C65.69596655 104.79229276 65.6969149 101.71853809 65.69921875 98.64453125 C65.69533015 96.50086891 65.69099514 94.35720733 65.68623352 92.21354675 C65.6787722 87.71875513 65.67906109 83.22404205 65.68432617 78.72924805 C65.69010762 72.98735339 65.67322128 67.24578269 65.6499815 61.50394154 C65.63519855 57.07452026 65.63437889 52.64517606 65.63749123 48.21573448 C65.63697988 46.09997608 65.63177735 43.98421314 65.62167931 41.86847878 C65.60924968 38.89884502 65.61614663 35.92983001 65.62768555 32.96020508 C65.62004181 32.09699142 65.61239807 31.23377777 65.60452271 30.34440613 C65.65731998 24.15192637 66.95773293 18.83420475 69 13 C69.66 13 70.32 13 71 13 C71.226875 12.2575 71.45375 11.515 71.6875 10.75 C73.26823621 7.43798128 74.95506421 6.00520162 78 4 C78.99 4 79.98 4 81 4 C81 3.34 81 2.68 81 2 C81.99 2 82.98 2 84 2 C84 1.34 84 0.68 84 0 C115.02 0 146.04 0 178 0 C178 10.56 178 21.12 178 32 C172.77671875 32.03738281 167.5534375 32.07476562 162.171875 32.11328125 C158.86324821 32.14355657 155.55467551 32.17470144 152.24609375 32.20898438 C146.99433096 32.2633192 141.74267517 32.31442858 136.49072266 32.34643555 C132.25655321 32.37244125 128.02274283 32.41282396 123.78879547 32.46318626 C122.1733166 32.47987354 120.5577756 32.49137624 118.9422226 32.49761391 C116.67952313 32.50723504 114.41774612 32.53526869 112.15527344 32.56762695 C110.86731873 32.57873001 109.57936401 32.58983307 108.25238037 32.60127258 C104.79728225 33.0248523 103.55763848 33.75458806 101 36 C100.34 36 99.68 36 99 36 C99 36.99 99 37.98 99 39 C98.34 39 97.68 39 97 39 C97 46.59 97 54.18 97 62 C99.41820068 61.99476318 101.83640137 61.98952637 104.32788086 61.98413086 C112.29868349 61.96759495 120.26948687 61.95652877 128.24030209 61.94818783 C133.07516827 61.94295903 137.91001694 61.93586146 142.74487305 61.92456055 C147.4067712 61.91373153 152.06865246 61.90772314 156.73056221 61.90512276 C158.51324288 61.90326853 160.29592259 61.89964797 162.07859612 61.89426994 C164.5666596 61.88705931 167.05465243 61.88600907 169.54272461 61.88647461 C170.28718842 61.88287933 171.03165222 61.87928406 171.79867554 61.87557983 C176.88594784 61.88594784 176.88594784 61.88594784 178 63 C178.25134544 66.26326643 178.18522634 69.54069716 178.1875 72.8125 C178.19974609 73.72837891 178.21199219 74.64425781 178.22460938 75.58789062 C178.22654297 76.47283203 178.22847656 77.35777344 178.23046875 78.26953125 C178.23457764 79.08010986 178.23868652 79.89068848 178.24291992 80.72583008 C177.96922751 83.28808619 177.38733584 84.83453594 176 87 C174.02514795 88.3703055 172.02613283 89.70672372 170 91 C169.67 91.66 169.34 92.32 169 93 C162.07 93 155.14 93 148 93 C148.01160156 95.22621094 148.02320313 97.45242188 148.03515625 99.74609375 C148.04294722 101.89396014 148.04902375 104.04182497 148.05493164 106.18969727 C148.05997121 107.68644918 148.06680287 109.18319616 148.07543945 110.67993164 C148.08752159 112.82699807 148.09323191 114.97399962 148.09765625 117.12109375 C148.10289307 118.4145874 148.10812988 119.70808105 148.11352539 121.04077148 C148 124 148 124 147 125 C146.76924918 126.34747084 146.58846937 127.70377565 146.4375 129.0625 C146.293125 130.361875 146.14875 131.66125 146 133 C145.34 133 144.68 133 144 133 C144.0825 133.845625 144.165 134.69125 144.25 135.5625 C143.98787261 139.16675155 142.99021846 141.15772111 141.08984375 144.1875 C139.39997589 146.99788955 138.23783115 149.96731369 137 153 C136.34 153 135.68 153 135 153 C134.9175 153.763125 134.835 154.52625 134.75 155.3125 C133.84730645 158.54715191 132.86406539 159.35099265 130 161 C129.34 161 128.68 161 128 161 C127.7525 161.58265625 127.505 162.1653125 127.25 162.765625 C125.81474554 165.33114236 124.22336987 166.83724798 122 168.75 C121.29875 169.36359375 120.5975 169.9771875 119.875 170.609375 C118 172 118 172 116 172 C116 172.66 116 173.32 116 174 C113.69 174.33 111.38 174.66 109 175 C109 175.66 109 176.32 109 177 C102.25922563 180.44565638 96.58271786 182.97924952 89 184 C88.67 184.33 88.34 184.66 88 185 C86.01242972 185.09983058 84.0213248 185.13080753 82.03125 185.1328125 C80.82082031 185.13410156 79.61039062 185.13539063 78.36328125 185.13671875 C77.08839844 185.13285156 75.81351562 185.12898437 74.5 185.125 C72.58767578 185.13080078 72.58767578 185.13080078 70.63671875 185.13671875 C68.82107422 185.13478516 68.82107422 185.13478516 66.96875 185.1328125 C65.84919922 185.13168457 64.72964844 185.13055664 63.57617188 185.12939453 C61 185 61 185 60 184 C59.071875 183.9175 58.14375 183.835 57.1875 183.75 C51.44281411 183.04092789 46.23934864 180.33146713 41 178 C41 177.34 41 176.68 41 176 C40.43152344 175.89300781 39.86304688 175.78601563 39.27734375 175.67578125 C35.02115192 174.41279465 31.59399692 171.53846269 28 169 C27.13375 168.401875 26.2675 167.80375 25.375 167.1875 C21.7404758 163.83991192 18.92764264 159.96607999 16 156 C15.39671875 155.22398437 14.7934375 154.44796875 14.171875 153.6484375 C9.35871718 147.22391815 6.56658065 140.57477736 4 133 C3.62746094 131.99195313 3.25492188 130.98390625 2.87109375 129.9453125 C1.99763224 126.99199423 1.79220326 124.68847947 1.875 121.625 C1.89304688 120.75101562 1.91109375 119.87703125 1.9296875 118.9765625 C1.95289063 118.32429688 1.97609375 117.67203125 2 117 C1.34 117 0.68 117 0 117 C0 78.39 0 39.78 0 0 Z " fill="#0A0705" transform="translate(175,171)"/>
<path d="M0 0 C0.71288681 -0.00058411 1.42577362 -0.00116821 2.16026306 -0.00177002 C4.49813886 0.00099925 6.83471243 0.03203349 9.17236328 0.06347656 C10.80045882 0.07094314 12.42856338 0.0766341 14.05667114 0.08062744 C18.32793278 0.09585113 22.59864455 0.13510414 26.86968994 0.17944336 C31.23352624 0.22046697 35.59745196 0.23865354 39.96142578 0.25878906 C48.51376057 0.30160215 57.06564965 0.36981314 65.61767578 0.45410156 C65.61767578 0.78410156 65.61767578 1.11410156 65.61767578 1.45410156 C64.74372665 1.44886475 63.86977753 1.44362793 62.96934509 1.43823242 C54.71542553 1.39587284 46.46256237 1.3919582 38.20860958 1.43075562 C33.96544771 1.4493571 29.7233434 1.4533204 25.48022461 1.42333984 C21.3817787 1.39492823 17.28509513 1.40560933 13.18673897 1.44290161 C11.62672852 1.4503232 10.06658592 1.44388075 8.5066967 1.42306519 C-1.34759768 1.09118961 -1.34759768 1.09118961 -9.83325195 5.39160156 C-13.68118554 12.19451231 -13.68118554 12.19451231 -13.38232422 28.45410156 C13.01767578 28.45410156 39.41767578 28.45410156 66.61767578 28.45410156 C66.61767578 52.45410156 66.61767578 52.45410156 62.61767578 59.45410156 C60.41593267 61.63393816 59.29537859 62.35719756 56.23583984 62.79467773 C54.94758301 62.77111206 54.94758301 62.77111206 53.63330078 62.74707031 C52.69873047 62.73740234 51.76416016 62.72773438 50.80126953 62.71777344 C49.83318359 62.69263672 48.86509766 62.6675 47.86767578 62.64160156 C46.88412109 62.62806641 45.90056641 62.61453125 44.88720703 62.60058594 C42.46347163 62.56528882 40.04085433 62.5159821 37.61767578 62.45410156 C37.63338623 63.37634521 37.64909668 64.29858887 37.6652832 65.2487793 C37.71677771 68.70977538 37.75420188 72.17035726 37.7824707 75.6315918 C37.7974462 77.12221754 37.81783397 78.61280008 37.84399414 80.10327148 C37.9854239 88.3755258 37.94156452 95.72415273 34.61767578 103.45410156 C33.8753958 106.02802613 33.16096201 108.60659711 32.46142578 111.19238281 C31.53139463 113.68538297 30.24348744 115.36316269 28.61767578 117.45410156 C28.18455078 118.54722656 27.75142578 119.64035156 27.30517578 120.76660156 C25.60667563 124.91849082 23.03366798 128.52737908 19.61767578 131.45410156 C18.62767578 131.45410156 17.63767578 131.45410156 16.61767578 131.45410156 C16.39080078 132.19660156 16.16392578 132.93910156 15.93017578 133.70410156 C14.31807623 137.08183396 12.7658156 138.45073986 9.61767578 140.45410156 C6.30517578 141.20410156 6.30517578 141.20410156 3.61767578 141.45410156 C4.29830078 140.95910156 4.97892578 140.46410156 5.68017578 139.95410156 C8.14707158 137.85461577 10.04689093 135.85207459 12.11767578 133.39160156 C14.73103256 130.305677 17.15154068 128.53378262 20.61767578 126.45410156 C21.96457493 123.88310754 21.96457493 123.88310754 22.61767578 121.45410156 C23.27767578 121.45410156 23.93767578 121.45410156 24.61767578 121.45410156 C24.79943359 120.77863281 24.98119141 120.10316406 25.16845703 119.40722656 C25.41982422 118.51519531 25.67119141 117.62316406 25.93017578 116.70410156 C26.17380859 115.82238281 26.41744141 114.94066406 26.66845703 114.03222656 C27.64367273 111.38349258 28.91381199 109.6765326 30.61767578 107.45410156 C31.33812945 104.30291831 31.33812945 104.30291831 31.61767578 101.45410156 C32.27767578 101.45410156 32.93767578 101.45410156 33.61767578 101.45410156 C33.59705078 100.15472656 33.57642578 98.85535156 33.55517578 97.51660156 C33.53368124 96.16244523 33.5461938 94.80654073 33.61767578 93.45410156 C33.94767578 93.12410156 34.27767578 92.79410156 34.61767578 92.45410156 C34.7765567 90.16421375 34.86905651 87.86966715 34.93408203 85.57519531 C34.95486313 84.88853287 34.97564423 84.20187042 34.99705505 83.49440002 C35.06261722 81.29357222 35.12146593 79.09262181 35.18017578 76.89160156 C35.22335471 75.40265642 35.26696878 73.91372383 35.31103516 72.42480469 C35.41912728 68.76802764 35.51814952 65.11116209 35.61767578 61.45410156 C42.54767578 61.45410156 49.47767578 61.45410156 56.61767578 61.45410156 C56.94767578 60.46410156 57.27767578 59.47410156 57.61767578 58.45410156 C61.06212023 55.45410156 61.06212023 55.45410156 63.61767578 55.45410156 C65.55964433 47.68622738 64.61767578 39.461043 64.61767578 31.45410156 C38.21767578 31.12410156 11.81767578 30.79410156 -15.38232422 30.45410156 C-15.38232422 22.86410156 -15.38232422 15.27410156 -15.38232422 7.45410156 C-14.72232422 7.45410156 -14.06232422 7.45410156 -13.38232422 7.45410156 C-13.38232422 6.46410156 -13.38232422 5.47410156 -13.38232422 4.45410156 C-8.94610301 0.68103369 -5.74108354 -0.03973068 0 0 Z " fill="#BC4610" transform="translate(287.38232421875,202.5458984375)"/>
<path d="M0 0 C0.33 0.99 0.66 1.98 1 3 C1.66 3 2.32 3 3 3 C4.78909354 7.59423474 5.28401337 11.67064895 5.24723816 16.54829407 C5.24965257 17.28775448 5.25206699 18.02721488 5.25455457 18.78908318 C5.26017018 21.25572011 5.2515449 23.72209559 5.24291992 26.1887207 C5.24399329 27.96136037 5.24593279 29.7339997 5.24867249 31.50663757 C5.25351343 36.31201606 5.24587578 41.11730147 5.23571944 45.9226687 C5.22693241 50.94837859 5.22869647 55.97408563 5.2290802 60.99980164 C5.22814423 69.43388425 5.21946699 77.86793085 5.20581055 86.30200195 C5.19006029 96.06554039 5.18481335 105.82903945 5.1855461 115.59258968 C5.18615537 124.97706292 5.18106083 134.36152328 5.17275429 143.74599266 C5.16921573 147.74479459 5.16739023 151.74359198 5.16686058 155.7423954 C5.16585965 160.44307597 5.15978368 165.1437232 5.14969444 169.84439278 C5.14676215 171.57424974 5.14554554 173.30411053 5.14612198 175.03396988 C5.14660913 177.38489064 5.14099226 179.73571654 5.13371277 182.08662415 C5.13203692 183.40529134 5.13036108 184.72395853 5.12863445 186.08258533 C5 189 5 189 4 190 C3.46823602 192.57391641 3.03569201 195.15859517 2.59765625 197.75 C2.40042969 198.4925 2.20320313 199.235 2 200 C1.34 200.33 0.68 200.66 0 201 C-0.66 201.99 -1.32 202.98 -2 204 C-1.38447079 199.9787115 -0.51568053 196.13436963 0.53923035 192.20858765 C2.44136009 184.0178577 2.41448614 176.01037878 2.37231445 167.66259766 C2.37474794 165.95777159 2.37847263 164.25294697 2.38337708 162.54812622 C2.39270925 157.95758569 2.38342813 153.36726122 2.37004495 148.77673769 C2.35865665 143.95673915 2.36284334 139.13675009 2.36479187 134.31674194 C2.36567202 126.23212182 2.35464888 118.14758601 2.33618164 110.06298828 C2.31497532 100.72599373 2.31151495 91.38912218 2.3177436 82.05210841 C2.32344211 73.04725885 2.3177886 64.04245244 2.30657005 55.0376091 C2.30193492 51.21401544 2.30104545 47.39044827 2.3031559 43.56685257 C2.30504262 39.06711427 2.29690541 34.56750082 2.2810955 30.06779099 C2.27686264 28.41946682 2.27599537 26.77112997 2.27878571 25.12280273 C2.28202252 22.86840458 2.27288868 20.61437604 2.26069641 18.36001587 C2.25864354 17.10021723 2.25659067 15.84041859 2.25447559 14.54244423 C1.98495214 10.79052532 1.07453827 7.59378529 0 4 C0 2.68 0 1.36 0 0 Z " fill="#B25010" transform="translate(389,159)"/>
<path d="M0 0 C0 0.66 0 1.32 0 2 C-1.65 2 -3.3 2 -5 2 C-5 2.66 -5 3.32 -5 4 C-69.35 4 -133.7 4 -200 4 C-200 3.34 -200 2.68 -200 2 C-199.01840251 1.99576806 -198.03680502 1.99153612 -197.02546215 1.98717594 C-173.16545145 1.8840838 -149.30547159 1.7753485 -125.44551373 1.66066074 C-113.90712696 1.60533043 -102.3687371 1.55184874 -90.83032227 1.50268555 C-80.77604886 1.45984137 -70.7217982 1.41356277 -60.66755992 1.36312145 C-55.34158435 1.33652241 -50.01561329 1.31166935 -44.68961143 1.29092598 C-39.68037989 1.27136216 -34.67119165 1.24721909 -29.66199875 1.21950912 C-27.82011386 1.21013735 -25.97821946 1.20246252 -24.13632011 1.19658089 C-21.62811974 1.18832188 -19.12002451 1.17404574 -16.61186218 1.15821838 C-15.87742958 1.15724028 -15.14299698 1.15626217 -14.38630885 1.15525442 C-9.41559856 1.11471844 -4.99444873 -0.11098775 0 0 Z " fill="#953912" transform="translate(368,377)"/>
<path d="M0 0 C0.33 0.66 0.66 1.32 1 2 C0.71125 2.53625 0.4225 3.0725 0.125 3.625 C-2.76254996 9.72093881 -2.14436655 17.33965325 -2.12939453 23.95849609 C-2.13111853 24.92775402 -2.13284252 25.89701195 -2.13461876 26.89564133 C-2.13894727 30.10492401 -2.13601709 33.31415416 -2.1328125 36.5234375 C-2.13391285 38.80052712 -2.13534393 41.07761659 -2.13708496 43.35470581 C-2.1399869 49.43900052 -2.13569642 55.5232682 -2.12897491 61.6075592 C-2.12500544 65.36984252 -2.12249082 69.13212444 -2.12030029 72.89440918 C-2.10055183 102.32973024 -2.05533142 131.76547795 -1.6521225 161.19843292 C-1.62516564 163.23747123 -1.60151583 165.2765246 -1.57867432 167.31561279 C-1.53417803 171.0283618 -1.47672917 174.74064368 -1.4140625 178.453125 C-1.39672058 180.01738724 -1.39672058 180.01738724 -1.37902832 181.61325073 C-1.26449282 187.20580079 -0.69690358 192.41730647 0.54043579 197.87664795 C1 200 1 200 1.375 203.5 C1.58125 204.325 1.7875 205.15 2 206 C3.31647119 206.69937532 4.65022151 207.36729133 6 208 C6.75 210.625 6.75 210.625 7 213 C0.44586227 207.1740998 -3.63753506 199.2356926 -4.24888897 190.40487671 C-4.25850246 189.04778378 -4.25729091 187.69058584 -4.24723816 186.33349609 C-4.24965257 185.58122931 -4.25206699 184.82896252 -4.25455457 184.05389977 C-4.26017158 181.54365623 -4.25154362 179.03366944 -4.24291992 176.5234375 C-4.2439933 174.71950207 -4.24593282 172.91556697 -4.24867249 171.1116333 C-4.25351501 166.21914565 -4.24587238 161.32674937 -4.23571944 156.43427277 C-4.22692822 151.31213995 -4.2286966 146.19000991 -4.2290802 141.06787109 C-4.22814398 132.46645583 -4.21946584 123.86507586 -4.20581055 115.26367188 C-4.19008551 105.32186939 -4.18481248 95.38010557 -4.1855461 85.43829155 C-4.18622185 74.85051971 -4.17927884 64.26276276 -4.1700995 53.67499542 C-4.16796922 50.6256759 -4.16725846 47.57635878 -4.16686058 44.52703857 C-4.16585516 39.73359516 -4.1597422 34.94018413 -4.14969444 30.1467514 C-4.14677665 28.388356 -4.14554261 26.62995687 -4.14612198 24.87155914 C-4.1466138 22.46983978 -4.14094584 20.06821068 -4.13371277 17.66650391 C-4.13526137 16.97213919 -4.13680997 16.27777447 -4.1384055 15.56236839 C-4.11876302 11.60766671 -3.7569429 7.8811389 -3 4 C-2.34 4 -1.68 4 -1 4 C-0.67 2.68 -0.34 1.36 0 0 Z " fill="#D55516" transform="translate(142,156)"/>
<path d="M0 0 C10.56 0 21.12 0 32 0 C32.66 1.65 33.32 3.3 34 5 C32.35 4.34 30.7 3.68 29 3 C29 2.34 29 1.68 29 1 C20.09 1 11.18 1 2 1 C2.33 42.58 2.66 84.16 3 127 C2.67 127 2.34 127 2 127 C2 123.7 2 120.4 2 117 C1.34 117 0.68 117 0 117 C0 78.39 0 39.78 0 0 Z " fill="#5D1C00" transform="translate(175,171)"/>
<path d="M0 0 C4.29 1.65 8.58 3.3 13 5 C13 5.66 13 6.32 13 7 C77.35 7 141.7 7 208 7 C208 6.34 208 5.68 208 5 C209.65 5 211.3 5 213 5 C213 4.34 213 3.68 213 3 C215.97 2.01 218.94 1.02 222 0 C221.67 1.32 221.34 2.64 221 4 C218.8203125 5.23046875 218.8203125 5.23046875 216.125 6.1875 C215.24070312 6.51105469 214.35640625 6.83460938 213.4453125 7.16796875 C208.86703391 8.72575364 205.07091231 9.1354205 200.26560974 9.10920715 C199.46972586 9.10880029 198.67384198 9.10839342 197.85384041 9.10797423 C195.17783745 9.10526958 192.50191249 9.09525206 189.82592773 9.08520508 C187.91070116 9.08161002 185.99547381 9.07840488 184.08024597 9.07556152 C178.8691509 9.06617571 173.65810119 9.04983714 168.44703174 9.03119111 C165.1903832 9.01955551 161.93373273 9.00888751 158.67708015 8.99844933 C148.48527553 8.96519445 138.29350304 8.92712974 128.10173935 8.88308412 C116.34237037 8.83240989 104.58310297 8.79813475 92.82364315 8.77790338 C83.73213369 8.76120417 74.64075473 8.72930308 65.54933316 8.68605727 C60.12085744 8.66059927 54.69254423 8.64163167 49.26400566 8.63868141 C44.15277922 8.63552009 39.04197457 8.61344928 33.93087959 8.57712555 C32.0596978 8.56704589 30.18846544 8.56366739 28.31726074 8.56765556 C10.1558752 8.59893329 10.1558752 8.59893329 2 4 C2 3.34 2 2.68 2 2 C1.34 2 0.68 2 0 2 C0 1.34 0 0.68 0 0 Z " fill="#1B0400" transform="translate(155,374)"/>
<path d="M0 0 C0.66 0 1.32 0 2 0 C2 0.99 2 1.98 2 3 C2.99 3.33 3.98 3.66 5 4 C7.52789819 9.40969549 8.43716172 14.0445585 8.3742218 20.02090454 C8.37819621 20.78713084 8.38217061 21.55335713 8.38626546 22.34280241 C8.39582435 24.88839661 8.38410974 27.43342606 8.37231445 29.97900391 C8.3747445 31.81279201 8.37846588 33.6465788 8.38337708 35.48036194 C8.39275923 40.44507995 8.38338382 45.40959989 8.37004495 50.37430239 C8.35870577 55.57516785 8.36283978 60.77602392 8.36479187 65.97689819 C8.36567391 74.70761338 8.35461201 83.43825078 8.33618164 92.16894531 C8.31500218 102.25963827 8.31150752 112.35021742 8.3177436 122.4409281 C8.32343948 132.15537048 8.31778979 141.86977283 8.30657005 151.58420944 C8.30192841 155.71564856 8.30104832 159.84706316 8.3031559 163.97850418 C8.3050405 168.84259384 8.29692159 173.70656776 8.2810955 178.57063103 C8.27685603 180.35482619 8.27599984 182.1390331 8.27878571 183.92323112 C8.28201306 186.35996834 8.2729119 188.79636095 8.26069641 191.23306274 C8.26447573 191.93773607 8.26825506 192.64240939 8.27214891 193.36843646 C8.23445946 197.62327103 7.52122428 201.03686446 6 205 C5.773125 205.845625 5.54625 206.69125 5.3125 207.5625 C3.38503404 211.14207965 0.38812897 212.87109544 -3 215 C-1.50079488 211.88626628 0.08152136 208.87771795 2 206 C2.66 206 3.32 206 4 206 C4.06058594 205.28972656 4.12117188 204.57945312 4.18359375 203.84765625 C4.26738281 202.92855469 4.35117187 202.00945312 4.4375 201.0625 C4.51871094 200.14597656 4.59992188 199.22945312 4.68359375 198.28515625 C5 196 5 196 6 195 C6.09982565 192.67463144 6.1344301 190.37891179 6.12698364 188.05297852 C6.12854363 187.31779023 6.13010362 186.58260195 6.13171089 185.82513523 C6.13572356 183.34303897 6.13253022 180.86100305 6.12939453 178.37890625 C6.13074845 176.60700443 6.13252834 174.8351029 6.13470459 173.0632019 C6.13927999 168.23689464 6.13748893 163.41060865 6.1343255 158.58430099 C6.13180245 153.54521373 6.13413929 148.50612835 6.13571167 143.46704102 C6.13753353 135.0030891 6.13512663 126.5391459 6.13037109 118.07519531 C6.12492844 108.27484088 6.12669109 98.47450725 6.1321975 88.67415333 C6.13672817 80.27588376 6.1373794 71.87762048 6.13475883 63.47935009 C6.1331958 58.45637356 6.13300299 53.43340682 6.13629532 48.41043091 C6.13917337 43.68930202 6.13719956 38.96820009 6.13140106 34.24707413 C6.13007311 32.509157 6.13046818 30.77123763 6.13266373 29.03332138 C6.13537385 26.67119027 6.13199582 24.30914692 6.12698364 21.94702148 C6.12921436 21.25024575 6.13144509 20.55347002 6.13374341 19.83557987 C6.38821394 16.64001172 6.38821394 16.64001172 5 14 C4.95936168 12.33382885 4.957279 10.66611905 5 9 C4.34 9 3.68 9 3 9 C2.01 6.03 1.02 3.06 0 0 Z " fill="#2A0B00" transform="translate(387,153)"/>
<path d="M0 0 C31.02 0 62.04 0 94 0 C94 10.56 94 21.12 94 32 C86.16507813 32.07347656 86.16507813 32.07347656 78.171875 32.1484375 C74.86326184 32.18382211 71.55467495 32.21978107 68.24609375 32.2578125 C62.99434158 32.31812544 57.74262617 32.37630825 52.49072266 32.421875 C48.25662276 32.45874407 44.02272367 32.50510843 39.78879547 32.55806351 C38.173307 32.57659884 36.5577755 32.59171 34.9422226 32.60334396 C32.67969696 32.62022128 30.41763031 32.64925934 28.15527344 32.68115234 C26.22334137 32.70113785 26.22334137 32.70113785 24.25238037 32.7215271 C21.23335457 32.98001989 19.52930192 33.40359005 17 35 C17 34.01 17 33.02 17 32 C20.53182358 30.82272547 23.31336262 30.88005742 27.04174805 30.88647461 C28.11042114 30.88625557 28.11042114 30.88625557 29.20068359 30.8860321 C31.554393 30.88672849 33.90802317 30.89450808 36.26171875 30.90234375 C37.89410865 30.9042089 39.52649911 30.90563235 41.15888977 30.90663147 C45.45461575 30.91044899 49.75030789 30.92027276 54.04602051 30.93133545 C58.42976423 30.94156601 62.81351341 30.94613262 67.19726562 30.95117188 C75.79819433 30.9618957 84.39908906 30.97948632 93 31 C93 21.1 93 11.2 93 1 C62.97 1 32.94 1 2 1 C1.67 1.99 1.34 2.98 1 4 C-2.51449983 7.26886275 -6.14533714 9.55866701 -11 10 C-9.63016497 6.83884224 -9.0109362 6.0072908 -6 4 C-5.01 4 -4.02 4 -3 4 C-3 3.34 -3 2.68 -3 2 C-2.01 2 -1.02 2 0 2 C0 1.34 0 0.68 0 0 Z " fill="#441500" transform="translate(259,171)"/>
<path d="M0 0 C0.33 0.66 0.66 1.32 1 2 C0.01 3.485 0.01 3.485 -1 5 C-2.1032892 9.1344401 -2.31689908 13.34678805 -2.55419922 17.60302734 C-2.59630964 18.34522207 -2.63842007 19.0874168 -2.68180656 19.85210228 C-3.14155569 28.68332884 -3.14473761 37.51069014 -3.1328125 46.3515625 C-3.13348846 48.14895643 -3.1344609 49.94635027 -3.13571167 51.7437439 C-3.13717112 55.4732146 -3.13508873 59.20266106 -3.13037109 62.93212891 C-3.12463305 67.69859524 -3.12798947 72.46500574 -3.13394356 77.23147011 C-3.13756148 80.92728088 -3.13640562 84.62307845 -3.13381577 88.31888962 C-3.13315206 90.07707094 -3.13395534 91.83525349 -3.13629532 93.59343338 C-3.13884675 96.04490589 -3.13494813 98.49628809 -3.12939453 100.94775391 C-3.13141876 101.66263977 -3.13344299 102.37752563 -3.13552856 103.11407471 C-3.11713121 107.51807276 -2.71117279 111.66753309 -2 116 C-4 115 -4 115 -5.10783386 113.01957703 C-6.33378517 108.87028886 -6.28687106 104.99202287 -6.2746582 100.68676758 C-6.27976913 99.75600403 -6.28488007 98.82524048 -6.29014587 97.86627197 C-6.30403345 94.79229276 -6.3030851 91.71853809 -6.30078125 88.64453125 C-6.30466985 86.50086891 -6.30900486 84.35720733 -6.31376648 82.21354675 C-6.3212278 77.71875513 -6.32093891 73.22404205 -6.31567383 68.72924805 C-6.30989238 62.98735339 -6.32677872 57.24578269 -6.3500185 51.50394154 C-6.36480145 47.07452026 -6.36562111 42.64517606 -6.36250877 38.21573448 C-6.36302012 36.09997608 -6.36822265 33.98421314 -6.37832069 31.86847878 C-6.39075032 28.89884502 -6.38385337 25.92983001 -6.37231445 22.96020508 C-6.37995819 22.09699142 -6.38760193 21.23377777 -6.39547729 20.34440613 C-6.34268002 14.15192637 -5.04226707 8.83420475 -3 3 C-2.34 3 -1.68 3 -1 3 C-0.67 2.01 -0.34 1.02 0 0 Z " fill="#561500" transform="translate(247,181)"/>
<path d="M0 0 C1.23019226 -0.00128164 1.23019226 -0.00128164 2.48523688 -0.00258917 C5.23674174 -0.00423791 7.9881858 0.00126753 10.73968506 0.00672913 C12.71069334 0.00701115 14.68170174 0.00685296 16.65270996 0.00628662 C22.00768339 0.00599926 27.3626345 0.01188618 32.71760273 0.01886058 C38.31234436 0.02510422 43.90708648 0.02569872 49.50183105 0.02688599 C60.0981602 0.02999631 70.69447906 0.0382057 81.29080367 0.04823548 C93.35354341 0.05940586 105.41628364 0.0649094 117.47902727 0.06993091 C142.29476006 0.08038854 167.1104837 0.09798223 191.9262085 0.12025452 C191.9262085 0.78025452 191.9262085 1.44025452 191.9262085 2.12025452 C190.41075959 2.11334107 190.41075959 2.11334107 188.86469555 2.10628796 C164.2592387 1.99519174 139.65381446 1.91307909 115.0481596 1.86119366 C103.14893862 1.83543402 91.24988353 1.80032613 79.35076904 1.74305725 C68.97708056 1.69315393 58.60351225 1.66094722 48.22970706 1.64981204 C42.73899729 1.64330508 37.24863124 1.62805823 31.75803185 1.59160423 C26.58452013 1.55753547 21.41149204 1.54722358 16.2378788 1.55471611 C14.34449252 1.55334643 12.45108919 1.54347913 10.55780029 1.52422714 C-2.73703526 1.3658107 -2.73703526 1.3658107 -15.05746746 6.04646015 C-17.0737915 7.12025452 -17.0737915 7.12025452 -20.0737915 7.12025452 C-20.0737915 7.78025452 -20.0737915 8.44025452 -20.0737915 9.12025452 C-20.7337915 8.79025452 -21.3937915 8.46025452 -22.0737915 8.12025452 C-16.16707898 1.17118096 -8.64801088 -0.0328624 0 0 Z " fill="#F05410" transform="translate(173.07379150390625,137.87974548339844)"/>
<path d="M0 0 C0.33 0 0.66 0 1 0 C1.00054477 0.93630343 1.00108953 1.87260687 1.00165081 2.83728313 C1.0160694 25.65772366 1.05918189 48.47797396 1.13209057 71.29830456 C1.16669031 82.3342273 1.19208951 93.37002579 1.19555664 104.40600586 C1.19860351 114.02903488 1.21919107 123.65184232 1.26052457 133.27478582 C1.28179063 138.36643363 1.29448811 143.45776692 1.28615379 148.54945946 C1.27857311 153.35046827 1.29459868 158.15084191 1.32806015 162.95173454 C1.33624524 164.705555 1.3361008 166.45943921 1.32659721 168.21325302 C1.27931847 177.90437855 1.85974688 185.57181508 5.92943287 194.50897694 C7 197 7 197 7 200 C6.34 199.34 5.68 198.68 5 198 C5 197.01 5 196.02 5 195 C4.34 195 3.68 195 3 195 C-0.32449461 190.01325809 -0.14413141 185.1443799 -0.12025452 179.29948425 C-0.12110894 178.53158784 -0.12196337 177.76369142 -0.12284368 176.97252542 C-0.12448859 174.40377889 -0.11899331 171.83509791 -0.11352539 169.26635742 C-0.11324328 167.42327882 -0.11340172 165.58020011 -0.1139679 163.73712158 C-0.11425494 158.73550122 -0.10837323 153.73390482 -0.10139394 148.73229003 C-0.09514492 143.50457744 -0.09455537 138.27686431 -0.09336853 133.04914856 C-0.09025979 123.15054691 -0.08205254 113.25195631 -0.07201904 103.35335952 C-0.06084373 92.08381014 -0.05534387 80.81426024 -0.05032361 69.5447067 C-0.03986957 46.36313168 -0.02227895 23.18156646 0 0 Z " fill="#642402" transform="translate(137,166)"/>
<path d="M0 0 C10.28304538 -0.02312376 20.56608462 -0.04091525 30.84915066 -0.05181217 C35.6234828 -0.05704093 40.39779721 -0.06413844 45.17211914 -0.07543945 C49.77566262 -0.0862686 54.37918899 -0.09227689 58.98274422 -0.09487724 C60.74309623 -0.09673144 62.50344726 -0.10035196 64.26379204 -0.10573006 C66.72072277 -0.11294086 69.17758195 -0.11399093 71.63452148 -0.11352539 C72.73719109 -0.1189183 72.73719109 -0.1189183 73.86213684 -0.12442017 C78.88594784 -0.11405216 78.88594784 -0.11405216 80 1 C80.25134544 4.26326643 80.18522634 7.54069716 80.1875 10.8125 C80.19974609 11.72837891 80.21199219 12.64425781 80.22460938 13.58789062 C80.22654297 14.47283203 80.22847656 15.35777344 80.23046875 16.26953125 C80.23457764 17.08010986 80.23868652 17.89068848 80.24291992 18.72583008 C79.96994197 21.28139757 79.4203215 22.86079778 78 25 C76.515 25.495 76.515 25.495 75 26 C75.33 24.35 75.66 22.7 76 21 C76.33 21 76.66 21 77 21 C77.33 14.73 77.66 8.46 78 2 C52.26 2 26.52 2 0 2 C0 1.34 0 0.68 0 0 Z " fill="#3D1000" transform="translate(273,233)"/>
<path d="M0 0 C1.65 0 3.3 0 5 0 C5.86224593 2.98371117 6.12373152 5.63148214 6.12025452 8.73297119 C6.12162918 9.6808551 6.12300385 10.62873901 6.12442017 11.60534668 C6.12082489 12.63824829 6.11722961 13.6711499 6.11352539 14.73535156 C6.11367142 15.82833557 6.11381744 16.92131958 6.1139679 18.04742432 C6.11327096 21.6618447 6.10548876 25.27621361 6.09765625 28.890625 C6.09579129 31.39597546 6.09436776 33.90132629 6.09336853 36.40667725 C6.08993987 42.32810211 6.08205751 48.24951044 6.07201904 54.17092681 C6.05974001 61.57488542 6.05437302 68.97884632 6.04882812 76.3828125 C6.0381016 89.58855106 6.02122457 102.79427436 6 116 C6.66 116 7.32 116 8 116 C8.18175781 116.65226562 8.36351562 117.30453125 8.55078125 117.9765625 C9.98023026 122.94664676 11.59228698 127.40345697 14 132 C14.6875 134.375 14.6875 134.375 15 136 C15.66 136 16.32 136 17 136 C17.495 137.98 17.495 137.98 18 140 C17.34 140 16.68 140 16 140 C13.74698405 136.82443992 11.90711633 133.39212424 10 130 C9.38125 128.906875 8.7625 127.81375 8.125 126.6875 C6.95337281 123.88861283 6.73522934 122.00073417 7 119 C6.34 119 5.68 119 5 119 C4.99853344 118.43531006 4.99706688 117.87062012 4.99555588 117.28881836 C4.95844309 103.52462647 4.89911846 89.76068299 4.81609726 75.99668884 C4.776615 69.34037907 4.74443003 62.6842544 4.72900391 56.02783203 C4.71384261 49.6021195 4.67940533 43.17677108 4.63169098 36.7512207 C4.61687195 34.30170865 4.60895869 31.85214462 4.60811615 29.40258789 C4.60574645 25.96721736 4.57866415 22.532853 4.54589844 19.09765625 C4.5509288 18.08848648 4.55595917 17.07931671 4.56114197 16.03956604 C4.46663332 9.62046892 3.28917536 5.53203166 0 0 Z " fill="#BF3E08" transform="translate(207,172)"/>
<path d="M0 0 C0.886875 0.103125 1.77375 0.20625 2.6875 0.3125 C1.6975 0.6425 0.7075 0.9725 -0.3125 1.3125 C-0.3125 1.9725 -0.3125 2.6325 -0.3125 3.3125 C-1.22 3.68375 -2.1275 4.055 -3.0625 4.4375 C-6.76955203 6.57618386 -8.08373262 8.73055243 -10.3125 12.3125 C-10.9725 12.3125 -11.6325 12.3125 -12.3125 12.3125 C-12.5290625 14.230625 -12.5290625 14.230625 -12.75 16.1875 C-13.01892746 18.56942894 -13.23476346 20.15702691 -14.3125 22.3125 C-14.4112602 25.33740788 -14.44875981 28.33932039 -14.44189453 31.36450195 C-14.44364685 32.30285889 -14.44539917 33.24121582 -14.44720459 34.20800781 C-14.45161986 37.32228423 -14.44868553 40.43650422 -14.4453125 43.55078125 C-14.4459858 45.71070873 -14.44695605 47.87063614 -14.44821167 50.03056335 C-14.44968834 54.56424682 -14.44753569 59.09791061 -14.44287109 63.6315918 C-14.43718404 69.44233682 -14.44044651 75.25303556 -14.44644356 81.06377888 C-14.4500587 85.52730151 -14.44890601 89.9908132 -14.44631577 94.45433617 C-14.44564861 96.59654941 -14.44646755 98.73876364 -14.44879532 100.88097572 C-14.4513363 103.87811536 -14.4474603 106.87518037 -14.44189453 109.87231445 C-14.44391876 110.75821762 -14.44594299 111.64412079 -14.44802856 112.55686951 C-14.43410109 116.60772622 -14.33031663 120.3605439 -13.3125 124.3125 C-16.01175515 121.74829268 -16.54319817 119.65181518 -16.6867218 116.06874084 C-16.70150884 114.29857442 -16.69963712 112.52822276 -16.68481445 110.75805664 C-16.68846512 109.79014694 -16.69211578 108.82223724 -16.69587708 107.82499695 C-16.70398582 104.62403847 -16.69036849 101.42358573 -16.67578125 98.22265625 C-16.67526264 95.99832662 -16.67578037 93.77399653 -16.67729187 91.54966736 C-16.67720213 86.88663902 -16.66676949 82.2237835 -16.64868164 77.56079102 C-16.62600775 71.58413713 -16.62544786 65.60773611 -16.63219929 59.63105106 C-16.63554144 55.03712213 -16.62890427 50.44325081 -16.61907005 45.84933281 C-16.61522105 43.64571878 -16.6140686 41.44209834 -16.6156559 39.23848152 C-16.61602687 36.15764289 -16.60339655 33.07712789 -16.5871582 29.99633789 C-16.58963562 29.0855246 -16.59211304 28.1747113 -16.59466553 27.23629761 C-16.55710303 22.76945679 -16.30046351 19.40125569 -14.3125 15.3125 C-13.93656934 13.3200675 -13.59270455 11.3206326 -13.3125 9.3125 C-12.3225 9.3125 -11.3325 9.3125 -10.3125 9.3125 C-10.085625 8.755625 -9.85875 8.19875 -9.625 7.625 C-7.20066269 3.35354856 -5.04605732 0.47604314 0 0 Z " fill="#CB4811" transform="translate(256.3125,171.6875)"/>
<path d="M0 0 C8.91 0 17.82 0 27 0 C27.04620329 3.98375021 27.08593897 7.96680745 27.10986328 11.95068359 C27.12472879 13.96328119 27.150157 15.97579188 27.17578125 17.98828125 C27.20942447 24.6832828 27.07013149 30.61030281 25 37 C24.34 37 23.68 37 23 37 C23 38.32 23 39.64 23 41 C22.34 41 21.68 41 21 41 C20.731875 42.093125 20.46375 43.18625 20.1875 44.3125 C18.63494968 49.13357731 18.63494968 49.13357731 16 51 C15.34 51 14.68 51 14 51 C14 51.66 14 52.32 14 53 C11.525 53.495 11.525 53.495 9 54 C9.39832031 53.55269531 9.79664063 53.10539062 10.20703125 52.64453125 C12.64588325 49.86151035 14.85003859 47.25172094 16.75 44.0625 C17.1625 43.381875 17.575 42.70125 18 42 C18.66 42 19.32 42 20 42 C20 41.01 20 40.02 20 39 C20.66 39 21.32 39 22 39 C22.12375 38.29875 22.2475 37.5975 22.375 36.875 C23 34 23 34 24.01318359 31.22607422 C25.04553832 27.85112733 25.31348016 25.02819441 25.4140625 21.5078125 C25.45273437 20.30898438 25.49140625 19.11015625 25.53125 17.875 C25.5621875 16.6375 25.593125 15.4 25.625 14.125 C25.66367187 12.86429687 25.70234375 11.60359375 25.7421875 10.3046875 C25.83616717 7.20335827 25.91916009 4.10169955 26 1 C17.75 1 9.5 1 1 1 C1 10.57 1 20.14 1 30 C0.67 30 0.34 30 0 30 C0 20.1 0 10.2 0 0 Z " fill="#581C03" transform="translate(272,263)"/>
<path d="M0 0 C0.66 0 1.32 0 2 0 C-0.26462803 5.55863244 -5.13026738 9.67432894 -10 13 C-13.3125 13.75 -13.3125 13.75 -16 14 C-16 14.66 -16 15.32 -16 16 C-17.65 16 -19.3 16 -21 16 C-21 16.66 -21 17.32 -21 18 C-34.94995789 18.86216121 -45.07019697 18.68654948 -57 11 C-57.76054687 10.65710938 -58.52109375 10.31421875 -59.3046875 9.9609375 C-61 9 -61 9 -62 6 C-58.66523906 6.95278884 -56.14189295 7.89770508 -53.3125 9.9375 C-49.40544288 12.37019594 -45.73600063 13.31343575 -41.29296875 14.38671875 C-39 15 -39 15 -38 16 C-30.8511487 16.65332209 -25.56164406 15.71516306 -19 13 C-16 12.8125 -16 12.8125 -14 13 C-14 12.34 -14 11.68 -14 11 C-12.02 10.67 -10.04 10.34 -8 10 C-7.67 9.01 -7.34 8.02 -7 7 C-5.0625 4.8125 -5.0625 4.8125 -3 3 C-2.34 3 -1.68 3 -1 3 C-0.67 2.01 -0.34 1.02 0 0 Z " fill="#C04710" transform="translate(288,306)"/>
<path d="M0 0 C8.25 0 16.5 0 25 0 C25.10882885 4.27153231 25.18772862 8.54023877 25.25 12.8125 C25.28351563 14.00810547 25.31703125 15.20371094 25.3515625 16.43554688 C25.43868887 24.42939177 24.31094913 30.70900632 21 38 C20.34 38 19.68 38 19 38 C18.67 38.99 18.34 39.98 18 41 C18 39.02 18 37.04 18 35 C18.66 35 19.32 35 20 35 C20.66 32.03 21.32 29.06 22 26 C22.66 26 23.32 26 24 26 C24 17.75 24 9.5 24 1 C16.41 1 8.82 1 1 1 C1 11.23 1 21.46 1 32 C0.34 32 -0.32 32 -1 32 C-1 32.66 -1 33.32 -1 34 C-2.485 34.495 -2.485 34.495 -4 35 C-4 34.34 -4 33.68 -4 33 C-3.34 33 -2.68 33 -2 33 C-0.91104109 29.41922407 -0.79810192 25.99531977 -0.68359375 22.265625 C-0.62075195 20.32236328 -0.62075195 20.32236328 -0.55664062 18.33984375 C-0.51683329 16.97656524 -0.47712094 15.61328394 -0.4375 14.25 C-0.39427726 12.87108125 -0.35066179 11.49217474 -0.30664062 10.11328125 C-0.20056101 6.74230694 -0.09977635 3.37116677 0 0 Z " fill="#CF5418" transform="translate(273,264)"/>
<path d="M0 0 C1.32 0.33 2.64 0.66 4 1 C3.01 1 2.02 1 1 1 C1 1.66 1 2.32 1 3 C-0.64333504 4.03789581 -2.31243867 5.03567924 -4 6 C-4.66 6.66 -5.32 7.32 -6 8 C-14.29728234 11.47898261 -23.02797705 11.46592756 -31.86181641 11.39111328 C-34.12853696 11.37497482 -36.39348827 11.39106749 -38.66015625 11.41015625 C-46.29632717 11.42056995 -52.86882234 11.01499205 -60 8 C-61.175625 7.608125 -62.35125 7.21625 -63.5625 6.8125 C-64.366875 6.544375 -65.17125 6.27625 -66 6 C-66 5.34 -66 4.68 -66 4 C-66.66 3.67 -67.32 3.34 -68 3 C-64.90684709 3.46865953 -62.50648317 4.21934081 -59.625 5.5 C-56.00538689 6.99777094 -52.86720876 7.53593495 -49 8 C-48.67 8.33 -48.34 8.66 -48 9 C-46.01242972 9.09983058 -44.0213248 9.13080753 -42.03125 9.1328125 C-40.21560547 9.13474609 -40.21560547 9.13474609 -38.36328125 9.13671875 C-36.45095703 9.13091797 -36.45095703 9.13091797 -34.5 9.125 C-33.22511719 9.12886719 -31.95023438 9.13273437 -30.63671875 9.13671875 C-29.42628906 9.13542969 -28.21585938 9.13414062 -26.96875 9.1328125 C-25.84919922 9.13168457 -24.72964844 9.13055664 -23.57617188 9.12939453 C-21.06858198 9.29216368 -21.06858198 9.29216368 -20 8 C-18.5459375 7.87625 -18.5459375 7.87625 -17.0625 7.75 C-12.6249666 7.20794105 -9.11284046 5.1845228 -5.234375 3.05859375 C-3 2 -3 2 0 2 C0 1.34 0 0.68 0 0 Z " fill="#C84C0F" transform="translate(284,346)"/>
<path d="M0 0 C0.33 0 0.66 0 1 0 C1.00808685 0.80464691 1.01617371 1.60929382 1.02450562 2.43832397 C1.10276851 10.0583085 1.19015203 17.6781102 1.28752708 25.29787254 C1.33726174 29.21433413 1.38359175 33.13077169 1.421875 37.04736328 C1.45901881 40.83411305 1.50545323 44.62064978 1.55806351 48.40721512 C1.57645424 49.84469452 1.59161733 51.28221931 1.60334396 52.71976852 C1.66442102 59.95481127 1.86248309 66.93900851 3.54043579 74.01260376 C4 76 4 76 4.375 79.5 C4.684375 80.7375 4.684375 80.7375 5 82 C6.31647119 82.69937532 7.65022151 83.36729133 9 84 C9.75 86.625 9.75 86.625 10 89 C4.77706165 84.35738813 1.36560432 78.92421404 0 72 C-0.08803369 69.64684987 -0.11764216 67.29131611 -0.11352539 64.93652344 C-0.11367142 64.23368225 -0.11381744 63.53084106 -0.1139679 62.80670166 C-0.11327299 60.49089437 -0.10550038 58.17516819 -0.09765625 55.859375 C-0.09579057 54.25083459 -0.09436737 52.64229362 -0.09336853 51.03375244 C-0.08955516 46.80544458 -0.07973495 42.57717121 -0.06866455 38.34887695 C-0.05842506 34.03206855 -0.05386547 29.71525456 -0.04882812 25.3984375 C-0.03811162 16.93227586 -0.02104937 8.46614222 0 0 Z " fill="#FB5407" transform="translate(139,280)"/>
<path d="M0 0 C0.99 0.495 0.99 0.495 2 1 C2 1.66 2 2.32 2 3 C2.56847656 3.11472656 3.13695312 3.22945313 3.72265625 3.34765625 C6.2368081 4.06783354 8.18162862 5.119946 10.4375 6.4375 C15.3685849 9.31039294 19.53174245 11.21164009 25.30078125 11.4140625 C26.27724609 11.45273437 27.25371094 11.49140625 28.25976562 11.53125 C29.26716797 11.5621875 30.27457031 11.593125 31.3125 11.625 C32.85260742 11.68300781 32.85260742 11.68300781 34.42382812 11.7421875 C36.94904265 11.83614897 39.47425592 11.9218154 42 12 C42 11.34 42 10.68 42 10 C43.65 10 45.3 10 47 10 C47 9.34 47 8.68 47 8 C48.65 7.67 50.3 7.34 52 7 C52 7.66 52 8.32 52 9 C44.62227015 13.24135574 38.12752745 13.52524759 29.75 13.3125 C28.59242188 13.30283203 27.43484375 13.29316406 26.2421875 13.28320312 C15.8456865 13.14514335 15.8456865 13.14514335 12 12 C11.34 11.01 10.68 10.02 10 9 C9.05125 8.71125 8.1025 8.4225 7.125 8.125 C3.39990211 6.78396476 2.13162199 5.27941844 0 2 C0 1.34 0 0.68 0 0 Z " fill="#350D01" transform="translate(225,312)"/>
<path d="M0 0 C0.33 0 0.66 0 1 0 C1.04976779 5.94074306 1.08589256 11.88136235 1.10986328 17.82226562 C1.11986576 19.83953976 1.13347206 21.8567996 1.15087891 23.87402344 C1.17538198 26.78844754 1.18654091 29.70267848 1.1953125 32.6171875 C1.20563507 33.50614716 1.21595764 34.39510681 1.22659302 35.31100464 C1.22764308 41.28997156 0.86600294 47.27589884 -1 53 C-1.99 53.495 -1.99 53.495 -3 54 C-3.66 54.99 -4.32 55.98 -5 57 C-4.39220147 53.02677812 -3.5345339 49.23839618 -2.48046875 45.36328125 C-0.37852181 36.37410392 -0.43253382 27.37138294 -0.3125 18.1875 C-0.27924671 16.41599168 -0.24474999 14.64450625 -0.20898438 12.87304688 C-0.12501213 8.58215983 -0.05777938 4.29131638 0 0 Z " fill="#D75D14" transform="translate(392,306)"/>
<path d="M0 0 C0.33 0 0.66 0 1 0 C1.00410889 1.17393311 1.00821777 2.34786621 1.01245117 3.55737305 C1.03446038 7.97300278 1.08897032 12.38776868 1.15258789 16.80297852 C1.1755799 18.70263296 1.19011879 20.60241147 1.19555664 22.50219727 C1.23150775 33.00268615 1.43287724 41.95827988 5.93481445 51.61254883 C7 54 7 54 7 57 C6.34 56.34 5.68 55.68 5 55 C5 54.01 5 53.02 5 52 C4.34 52 3.68 52 3 52 C-0.74974638 46.37538043 -0.13370719 40.42903204 -0.09765625 33.88671875 C-0.0962413 32.91716751 -0.09482635 31.94761627 -0.09336853 30.94868469 C-0.08778513 27.86159133 -0.07523564 24.77457133 -0.0625 21.6875 C-0.05748286 19.59049584 -0.05292032 17.49349054 -0.04882812 15.39648438 C-0.03782112 10.26429479 -0.02056788 5.13215982 0 0 Z " fill="#642402" transform="translate(137,309)"/>
<path d="M0 0 C1.11375 0.9590625 1.11375 0.9590625 2.25 1.9375 C6.27362744 4.95522058 9.47666251 5.15309752 14.4375 5.1875 C15.36433594 5.20167969 16.29117187 5.21585937 17.24609375 5.23046875 C20.17833373 4.98507562 22.33861389 4.22201577 25 3 C24.6875 4.875 24.6875 4.875 24 7 C19.3255605 10.116293 14.47544071 9.47077202 9 9 C4.75583384 7.51081889 2.27336851 5.91524576 0 2 C0 1.34 0 0.68 0 0 Z " fill="#F3520F" transform="translate(243,296)"/>
<path d="M0 0 C0.66 0 1.32 0 2 0 C-0.26462803 5.55863244 -5.13026738 9.67432894 -10 13 C-13.3125 13.75 -13.3125 13.75 -16 14 C-16 14.66 -16 15.32 -16 16 C-19.63 16.33 -23.26 16.66 -27 17 C-26 15 -26 15 -22.75 13.875 C-19.62299365 13.14536518 -17.17377095 12.80765025 -14 13 C-14 12.34 -14 11.68 -14 11 C-12.02 10.67 -10.04 10.34 -8 10 C-7.67 9.01 -7.34 8.02 -7 7 C-5.0625 4.8125 -5.0625 4.8125 -3 3 C-2.34 3 -1.68 3 -1 3 C-0.67 2.01 -0.34 1.02 0 0 Z " fill="#DA4D10" transform="translate(288,306)"/>
<path d="M0 0 C4.29 1.65 8.58 3.3 13 5 C13 5.66 13 6.32 13 7 C24.22 7 35.44 7 47 7 C47 7.33 47 7.66 47 8 C42.19862755 8.09978872 37.39787479 8.17189617 32.59570312 8.21972656 C30.96636422 8.23969079 29.33709555 8.2668723 27.70800781 8.30175781 C10.34714695 8.6638862 10.34714695 8.6638862 2 4 C2 3.34 2 2.68 2 2 C1.34 2 0.68 2 0 2 C0 1.34 0 0.68 0 0 Z " fill="#1E0500" transform="translate(155,374)"/>
<path d="M0 0 C3.63 0 7.26 0 11 0 C11.05397048 3.25022232 11.09365955 6.49954753 11.125 9.75 C11.14175781 10.67039063 11.15851563 11.59078125 11.17578125 12.5390625 C11.18222656 13.42851562 11.18867188 14.31796875 11.1953125 15.234375 C11.20578613 16.05131836 11.21625977 16.86826172 11.22705078 17.70996094 C10.97194889 20.28292411 10.43171587 21.85034435 9 24 C8.01 24.33 7.02 24.66 6 25 C6.33 23.35 6.66 21.7 7 20 C7.33 20 7.66 20 8 20 C8.33 13.73 8.66 7.46 9 1 C6.03 1 3.06 1 0 1 C0 0.67 0 0.34 0 0 Z " fill="#3A0E01" transform="translate(342,234)"/>
<path d="M0 0 C0.33 0 0.66 0 1 0 C1.05451714 2.04136395 1.09302485 4.08315856 1.125 6.125 C1.14820313 7.26195312 1.17140625 8.39890625 1.1953125 9.5703125 C0.99567281 13.07598541 0.23887897 15.73216452 -1 19 C-1.3403125 20.2684375 -1.3403125 20.2684375 -1.6875 21.5625 C-3.61496596 25.14207965 -6.61187103 26.87109544 -10 29 C-8.50079488 25.88626628 -6.91847864 22.87771795 -5 20 C-4.34 20 -3.68 20 -3 20 C-2.93941406 19.28972656 -2.87882812 18.57945312 -2.81640625 17.84765625 C-2.73261719 16.92855469 -2.64882813 16.00945312 -2.5625 15.0625 C-2.48128906 14.14597656 -2.40007812 13.22945313 -2.31640625 12.28515625 C-2 10 -2 10 -1 9 C-0.76807135 7.48530552 -0.58784762 5.96245438 -0.4375 4.4375 C-0.35371094 3.61121094 -0.26992188 2.78492188 -0.18359375 1.93359375 C-0.12300781 1.29550781 -0.06242187 0.65742188 0 0 Z " fill="#3A1202" transform="translate(394,339)"/>
<path d="M0 0 C0.33 0 0.66 0 1 0 C1.11765973 4.27059561 1.18773631 8.54076597 1.25 12.8125 C1.30027344 14.6059082 1.30027344 14.6059082 1.3515625 16.43554688 C1.43868887 24.42939177 0.31094913 30.70900632 -3 38 C-3.66 38 -4.32 38 -5 38 C-5.33 38.99 -5.66 39.98 -6 41 C-6 39.02 -6 37.04 -6 35 C-5.34 35 -4.68 35 -4 35 C-3.34 32.03 -2.68 29.06 -2 26 C-1.34 26 -0.68 26 0 26 C0 17.42 0 8.84 0 0 Z " fill="#B6420A" transform="translate(297,264)"/>
<path d="M0 0 C0.33 0 0.66 0 1 0 C1.024727 4.35994067 1.04287281 8.71984414 1.05493164 13.07983398 C1.05995903 14.56291413 1.06678185 16.04598933 1.07543945 17.52905273 C1.08757482 19.66130801 1.09324425 21.79349773 1.09765625 23.92578125 C1.10289307 25.20880127 1.10812988 26.49182129 1.11352539 27.8137207 C1 31 1 31 0 34 C-0.66 34 -1.32 34 -2 34 C-2 34.66 -2 35.32 -2 36 C-3.98 36.495 -3.98 36.495 -6 37 C-6 36.01 -6 35.02 -6 34 C-5.01 34 -4.02 34 -3 34 C-3 33.01 -3 32.02 -3 31 C-2.34 30.67 -1.68 30.34 -1 30 C-0.67 20.1 -0.34 10.2 0 0 Z " fill="#1A0300" transform="translate(271,263)"/>
<path d="M0 0 C1.65 0 3.3 0 5 0 C6.09828769 3.54188278 6.11445011 6.8209762 6.09765625 10.515625 C6.09282227 12.39121094 6.09282227 12.39121094 6.08789062 14.3046875 C6.07951172 15.60664063 6.07113281 16.90859375 6.0625 18.25 C6.05798828 19.56742188 6.05347656 20.88484375 6.04882812 22.2421875 C6.03704316 25.49483741 6.02059011 28.74739584 6 32 C5.67 32 5.34 32 5 32 C4.98598145 30.97229492 4.98598145 30.97229492 4.97167969 29.92382812 C4.9175809 26.78185565 4.83401176 23.64130933 4.75 20.5 C4.73582031 19.42234375 4.72164062 18.3446875 4.70703125 17.234375 C4.49888427 10.4071539 3.55512308 5.85884283 0 0 Z " fill="#C73F07" transform="translate(207,172)"/>
<path d="M0 0 C0.33 0.66 0.66 1.32 1 2 C-0.3967121 4.7934242 -1.99413085 4.96442959 -4.875 6.0625 C-5.75929688 6.40410156 -6.64359375 6.74570312 -7.5546875 7.09765625 C-11.3326096 8.49174572 -13.70341488 9.08216328 -17.6875 8.5625 C-18.49574219 8.46066406 -19.30398438 8.35882813 -20.13671875 8.25390625 C-20.75160156 8.17011719 -21.36648438 8.08632813 -22 8 C-22 7.67 -22 7.34 -22 7 C-19.03 7 -16.06 7 -13 7 C-13 6.34 -13 5.68 -13 5 C-11.35 5 -9.7 5 -8 5 C-8 4.34 -8 3.68 -8 3 C-5.36 2.01 -2.72 1.02 0 0 Z " fill="#200501" transform="translate(376,374)"/>
<path d="M0 0 C0.66 0.33 1.32 0.66 2 1 C-2.25899198 6.36366802 -6.58500377 11.24882636 -13 14 C-14.32 14 -15.64 14 -17 14 C-17 13.34 -17 12.68 -17 12 C-14.09399739 10.74335022 -12.20395416 10 -9 10 C-9.33 9.01 -9.66 8.02 -10 7 C-8.35 7 -6.7 7 -5 7 C-5 6.01 -5 5.02 -5 4 C-4.01 4 -3.02 4 -2 4 C-2 3.01 -2 2.02 -2 1 C-1.34 0.67 -0.68 0.34 0 0 Z " fill="#DB4C10" transform="translate(385,363)"/>
<path d="M0 0 C1.32 0.33 2.64 0.66 4 1 C3.01 1 2.02 1 1 1 C1 1.66 1 2.32 1 3 C-0.64333504 4.03789581 -2.31243867 5.03567924 -4 6 C-4.66 6.66 -5.32 7.32 -6 8 C-8.55867474 8.4657363 -11.04687908 8.83484248 -13.625 9.125 C-14.33140625 9.21136719 -15.0378125 9.29773438 -15.765625 9.38671875 C-17.50950141 9.59881183 -19.2546484 9.80040991 -21 10 C-20.67 9.34 -20.34 8.68 -20 8 C-19.030625 7.896875 -18.06125 7.79375 -17.0625 7.6875 C-12.60079423 7.20715072 -9.12504312 5.19121153 -5.234375 3.05859375 C-3 2 -3 2 0 2 C0 1.34 0 0.68 0 0 Z " fill="#9A360A" transform="translate(284,346)"/>
<path d="M0 0 C0.66 0 1.32 0 2 0 C2.18175781 0.65226562 2.36351562 1.30453125 2.55078125 1.9765625 C3.98023026 6.94664676 5.59228698 11.40345697 8 16 C8.6875 18.375 8.6875 18.375 9 20 C9.66 20 10.32 20 11 20 C11.33 21.32 11.66 22.64 12 24 C11.34 24 10.68 24 10 24 C7.74683021 20.82422308 5.90988793 17.39081707 4 14 C3.401875 12.96875 2.80375 11.9375 2.1875 10.875 C0.66829215 7.19691784 0.34133329 3.95946621 0 0 Z " fill="#BE4710" transform="translate(213,288)"/>
<path d="M0 0 C-0.73605469 0.26554688 -1.47210938 0.53109375 -2.23046875 0.8046875 C-3.69419922 1.33449219 -3.69419922 1.33449219 -5.1875 1.875 C-6.15042969 2.22304687 -7.11335937 2.57109375 -8.10546875 2.9296875 C-9.06066406 3.28289062 -10.01585937 3.63609375 -11 4 C-11.92425781 4.31195313 -12.84851563 4.62390625 -13.80078125 4.9453125 C-14.52652344 5.29335937 -15.25226563 5.64140625 -16 6 C-16.33 6.99 -16.66 7.98 -17 9 C-19.5625 10.6875 -19.5625 10.6875 -22 12 C-22 10.35 -22 8.7 -22 7 C-20.68 7 -19.36 7 -18 7 C-17.67 6.01 -17.34 5.02 -17 4 C-16.01 4 -15.02 4 -14 4 C-14 3.34 -14 2.68 -14 2 C-12.35 2 -10.7 2 -9 2 C-9 1.34 -9 0.68 -9 0 C-5.5657338 -0.85856655 -3.38317487 -0.97591583 0 0 Z " fill="#330D01" transform="translate(168,138)"/>
<path d="M0 0 C0.33 0.66 0.66 1.32 1 2 C0.67 2.66 0.34 3.32 0 4 C-0.66 4 -1.32 4 -2 4 C-2.226875 4.7425 -2.45375 5.485 -2.6875 6.25 C-4.29959955 9.62773239 -5.85186018 10.99663829 -9 13 C-12.3125 13.75 -12.3125 13.75 -15 14 C-14.319375 13.505 -13.63875 13.01 -12.9375 12.5 C-9.80400448 9.83319531 -7.27718336 6.95680358 -4.6484375 3.8046875 C-3 2 -3 2 0 0 Z " fill="#B7410E" transform="translate(306,330)"/>
<path d="M0 0 C1.19529824 3.58589471 0.8077623 5.71485916 0.25 9.4375 C0.09015625 10.57058594 -0.0696875 11.70367187 -0.234375 12.87109375 C-1.00314669 16.01285967 -1.75909605 17.69684872 -4 20 C-4.66 20 -5.32 20 -6 20 C-6.33 21.32 -6.66 22.64 -7 24 C-7.33 23.34 -7.66 22.68 -8 22 C-7.01182658 20.28716607 -6.01945458 18.57639598 -4.9921875 16.88671875 C-3.64714545 14.32902068 -3.27851861 11.8548158 -3 9 C-2.34 9 -1.68 9 -1 9 C-1.020625 7.700625 -1.04125 6.40125 -1.0625 5.0625 C-1.08399454 3.70834367 -1.07148199 2.35243917 -1 1 C-0.67 0.67 -0.34 0.34 0 0 Z " fill="#B6440E" transform="translate(322,295)"/>
<path d="M0 0 C0.66 0 1.32 0 2 0 C2 0.99 2 1.98 2 3 C2.99 3.33 3.98 3.66 5 4 C8.57245002 10.88027411 8.31382096 17.37531305 8 25 C7.67 25 7.34 25 7 25 C6.90912109 23.93458984 6.90912109 23.93458984 6.81640625 22.84765625 C6.73261719 21.92855469 6.64882813 21.00945312 6.5625 20.0625 C6.48128906 19.14597656 6.40007812 18.22945312 6.31640625 17.28515625 C6.23955024 15.03840268 6.23955024 15.03840268 5 14 C4.95936168 12.33382885 4.957279 10.66611905 5 9 C4.34 9 3.68 9 3 9 C2.01 6.03 1.02 3.06 0 0 Z " fill="#320C00" transform="translate(387,153)"/>
<path d="M0 0 C0.33 0 0.66 0 1 0 C1.117292 3.18718443 1.18760766 6.37380568 1.25 9.5625 C1.30027344 10.90538086 1.30027344 10.90538086 1.3515625 12.27539062 C1.44119494 18.39280489 0.71538943 22.06383976 -3 27 C-6.25 27.9375 -6.25 27.9375 -9 28 C-7.37660195 26.29115995 -5.70680947 24.62553283 -4 23 C-3.34 23 -2.68 23 -2 23 C-1.19347492 20.11832319 -0.82484994 17.43968453 -0.68359375 14.453125 C-0.64169922 13.60878906 -0.59980469 12.76445312 -0.55664062 11.89453125 C-0.51732422 11.02183594 -0.47800781 10.14914063 -0.4375 9.25 C-0.39431641 8.36183594 -0.35113281 7.47367188 -0.30664062 6.55859375 C-0.20086385 4.37254037 -0.09877454 2.18637911 0 0 Z " fill="#C24B13" transform="translate(353,235)"/>
<path d="M0 0 C0.66 0 1.32 0 2 0 C2.50833591 1.24663331 3.00631145 2.49749387 3.5 3.75 C3.7784375 4.44609375 4.056875 5.1421875 4.34375 5.859375 C5 8 5 8 5 12 C5.639375 12.226875 6.27875 12.45375 6.9375 12.6875 C9 14 9 14 9.75 16.625 C9.8325 17.40875 9.915 18.1925 10 19 C4.12445215 13.7772908 0.79314925 7.93149255 0 0 Z " fill="#CC4810" transform="translate(139,350)"/>
<path d="M0 0 C0 0.66 0 1.32 0 2 C-0.99 2 -1.98 2 -3 2 C-3.66 3.32 -4.32 4.64 -5 6 C-5.66 6 -6.32 6 -7 6 C-7 6.66 -7 7.32 -7 8 C-9.5 9.625 -9.5 9.625 -12 11 C-12.66 9.68 -13.32 8.36 -14 7 C-8.375 4 -8.375 4 -5 4 C-4.67 3.01 -4.34 2.02 -4 1 C-2 0 -2 0 0 0 Z " fill="#160601" transform="translate(282,317)"/>
<path d="M0 0 C0.33 0 0.66 0 1 0 C1.02703381 1.93742341 1.04641125 3.87495479 1.0625 5.8125 C1.07410156 6.89144531 1.08570313 7.97039062 1.09765625 9.08203125 C1 12 1 12 0 15 C-0.99 15.495 -0.99 15.495 -2 16 C-2.66 16.99 -3.32 17.98 -4 19 C-3.32036523 14.65825558 -2.44151215 10.40296481 -1.4375 6.125 C-1.16808594 4.97257812 -0.89867187 3.82015625 -0.62109375 2.6328125 C-0.41613281 1.76398438 -0.21117187 0.89515625 0 0 Z " fill="#D0470D" transform="translate(391,344)"/>
<path d="M0 0 C1.65 0 3.3 0 5 0 C0.91088591 4.23515388 -2.02580781 7.17025109 -8 8 C-6.63016497 4.83884224 -6.0109362 4.0072908 -3 2 C-2.01 2 -1.02 2 0 2 C0 1.34 0 0.68 0 0 Z " fill="#310D01" transform="translate(256,173)"/>
<path d="M0 0 C0 0.66 0 1.32 0 2 C-1.76755526 2.84026396 -3.53917263 3.67198722 -5.3125 4.5 C-6.29863281 4.9640625 -7.28476563 5.428125 -8.30078125 5.90625 C-11 7 -11 7 -14 7 C-14 7.66 -14 8.32 -14 9 C-14.66 8.67 -15.32 8.34 -16 8 C-12.12474418 3.4408755 -6.04090356 0 0 0 Z " fill="#C44812" transform="translate(167,138)"/>
<path d="M0 0 C0.99 0.33 1.98 0.66 3 1 C4.16796875 3.3984375 4.16796875 3.3984375 5.1875 6.375 C5.53167969 7.35210937 5.87585938 8.32921875 6.23046875 9.3359375 C7 12 7 12 7 15 C6.34 14.34 5.68 13.68 5 13 C5 12.01 5 11.02 5 10 C4.34 10 3.68 10 3 10 C0.70366176 6.55549263 0.45983515 4.06187717 0 0 Z " fill="#461302" transform="translate(137,351)"/>
<path d="M0 0 C0.99 0.495 0.99 0.495 2 1 C2 1.66 2 2.32 2 3 C2.57234375 3.12246094 3.1446875 3.24492187 3.734375 3.37109375 C6.09953191 4.02762868 8.07206797 4.93723512 10.25 6.0625 C10.95640625 6.42472656 11.6628125 6.78695313 12.390625 7.16015625 C12.92171875 7.43730469 13.4528125 7.71445312 14 8 C9.9996939 9.18974621 7.84714784 8.76327609 4 7 C0 2.78947368 0 2.78947368 0 0 Z " fill="#471502" transform="translate(225,312)"/>
<path d="M0 0 C0.33 0.66 0.66 1.32 1 2 C0.67 2.66 0.34 3.32 0 4 C-5.28 4 -10.56 4 -16 4 C-16.33 3.34 -16.66 2.68 -17 2 C-15.66195312 2.03480469 -15.66195312 2.03480469 -14.296875 2.0703125 C-13.12640625 2.08835937 -11.9559375 2.10640625 -10.75 2.125 C-9.58984375 2.14820313 -8.4296875 2.17140625 -7.234375 2.1953125 C-4.17213954 2.0103949 -2.55797249 1.60823023 0 0 Z " fill="#A93907" transform="translate(267,299)"/>
<path d="M0 0 C0.66 0 1.32 0 2 0 C2.33 3.96 2.66 7.92 3 12 C2.01 11.67 1.02 11.34 0 11 C0 7.37 0 3.74 0 0 Z " fill="#C44610" transform="translate(175,288)"/>
<path d="M0 0 C1.65 0 3.3 0 5 0 C5.33 2.64 5.66 5.28 6 8 C5.34 8 4.68 8 4 8 C2.68 5.36 1.36 2.72 0 0 Z " fill="#DC4C12" transform="translate(207,172)"/>
<path d="M0 0 C1 2 1 2 0.375 4.5 C-1 7 -1 7 -3.625 8.3125 C-4.40875 8.539375 -5.1925 8.76625 -6 9 C-5.69381595 5.32579134 -5.24228216 4.21864487 -2.4375 1.6875 C-1.633125 1.130625 -0.82875 0.57375 0 0 Z " fill="#AF3F0B" transform="translate(149,147)"/>
<path d="M0 0 C0 3.58912412 -0.66436554 4.10857029 -3 6.6875 C-3.556875 7.31011719 -4.11375 7.93273437 -4.6875 8.57421875 C-5.120625 9.04472656 -5.55375 9.51523437 -6 10 C-6.33 9.34 -6.66 8.68 -7 8 C-6.21366078 6.85050412 -5.42073742 5.70551011 -4.625 4.5625 C-4.18414062 3.92441406 -3.74328125 3.28632813 -3.2890625 2.62890625 C-2 1 -2 1 0 0 Z " fill="#F04B09" transform="translate(313,324)"/>
<path d="M0 0 C3.3 0.33 6.6 0.66 10 1 C10 1.66 10 2.32 10 3 C10.99 3.33 11.98 3.66 13 4 C7.76824163 4.38281159 4.62197306 3.21854707 0 1 C0 0.67 0 0.34 0 0 Z " fill="#3F1101" transform="translate(221,350)"/>
<path d="M0 0 C0.33 0 0.66 0 1 0 C1.39111271 1.91344374 1.76231167 3.83096553 2.125 5.75 C2.33382812 6.81734375 2.54265625 7.8846875 2.7578125 8.984375 C3.01099324 12.13688351 2.70415175 13.39959066 1 16 C-0.06723961 12.53777385 -0.10173486 9.35960734 -0.0625 5.75 C-0.04896484 4.13351562 -0.04896484 4.13351562 -0.03515625 2.484375 C-0.02355469 1.66453125 -0.01195312 0.8446875 0 0 Z " fill="#250900" transform="translate(178,288)"/>
<path d="M0 0 C1.98 0 3.96 0 6 0 C6 0.99 6 1.98 6 3 C6.99 3 7.98 3 9 3 C9 3.66 9 4.32 9 5 C2.25 3.375 2.25 3.375 0 0 Z " fill="#D0490E" transform="translate(151,371)"/>
<path d="M0 0 C0.66 0.33 1.32 0.66 2 1 C1.67 1.99 1.34 2.98 1 4 C0.34 4 -0.32 4 -1 4 C-1 4.66 -1 5.32 -1 6 C-2.32 6.33 -3.64 6.66 -5 7 C-5 6.01 -5 5.02 -5 4 C-4.01 4 -3.02 4 -2 4 C-2 3.01 -2 2.02 -2 1 C-1.34 0.67 -0.68 0.34 0 0 Z " fill="#300B01" transform="translate(270,293)"/>
<path d="M0 0 C4.455 1.98 4.455 1.98 9 4 C9 4.33 9 4.66 9 5 C7.02 5 5.04 5 3 5 C2.67 4.01 2.34 3.02 2 2 C1.34 2 0.68 2 0 2 C0 1.34 0 0.68 0 0 Z " fill="#521A04" transform="translate(155,374)"/>
<path d="M0 0 C0.33 0.66 0.66 1.32 1 2 C0.67 2.66 0.34 3.32 0 4 C-2.64860427 4.59355614 -5.29197322 4.74209269 -8 5 C-8 4.34 -8 3.68 -8 3 C-5.36 2.01 -2.72 1.02 0 0 Z " fill="#4E1602" transform="translate(376,374)"/>
<path d="M0 0 C1.31611677 0.95336021 2.62778961 1.91285774 3.9375 2.875 C4.66839844 3.40867187 5.39929688 3.94234375 6.15234375 4.4921875 C8 6 8 6 9 8 C3.5 6.53333333 3.5 6.53333333 1.125 4 C0 2 0 2 0 0 Z " fill="#CC490F" transform="translate(243,296)"/>
<path d="M0 0 C0.66 0 1.32 0 2 0 C2 0.99 2 1.98 2 3 C2.99 3.33 3.98 3.66 5 4 C5 5.65 5 7.3 5 9 C4.34 9 3.68 9 3 9 C2.01 6.03 1.02 3.06 0 0 Z " fill="#5F1F02" transform="translate(387,153)"/>
<path d="M0 0 C4.875 3.625 4.875 3.625 6 7 C5.01 7.495 5.01 7.495 4 8 C4 7.34 4 6.68 4 6 C3.01 5.67 2.02 5.34 1 5 C0.67 3.35 0.34 1.7 0 0 Z " fill="#C1450F" transform="translate(190,326)"/>
<path d="M0 0 C1.04449911 3.13349732 0.93423645 3.98968256 0 7 C-0.66 7 -1.32 7 -2 7 C-2.33 7.99 -2.66 8.98 -3 10 C-3 8.02 -3 6.04 -3 4 C-2.34 4 -1.68 4 -1 4 C-0.67 2.68 -0.34 1.36 0 0 Z " fill="#DD530F" transform="translate(294,295)"/>
<path d="M0 0 C4.8 3.32307692 4.8 3.32307692 5.8125 6.75 C5.874375 7.4925 5.93625 8.235 6 9 C5.01 8.67 4.02 8.34 3 8 C1.76132839 5.38502661 0.91496017 2.74488051 0 0 Z " fill="#DA4B0E" transform="translate(383,150)"/>
<path d="M0 0 C1.98 1.65 3.96 3.3 6 5 C4.125 5.625 4.125 5.625 2 6 C1.34 5.34 0.68 4.68 0 4 C0 2.68 0 1.36 0 0 Z " fill="#2C0D01" transform="translate(145,366)"/>
</svg>
